<svg width="534" height="93" viewBox="0 0 534 93" fill="none" xmlns="http://www.w3.org/2000/svg">
<path d="M46.224 92.28C39.6533 92.28 33.552 91.128 27.92 88.824C22.288 86.52 17.3813 83.32 13.2 79.224C9.104 75.0427 5.904 70.136 3.6 64.504C1.296 58.872 0.144 52.7707 0.144 46.2C0.144 39.6293 1.296 33.528 3.6 27.896C5.904 22.264 9.104 17.4 13.2 13.304C17.3813 9.12266 22.288 5.88 27.92 3.576C33.552 1.272 39.6533 0.119995 46.224 0.119995C50.7467 0.119995 55.0987 0.674662 59.28 1.784C63.5467 2.80799 67.344 4.38666 70.672 6.52C71.2693 6.94666 71.696 7.45866 71.952 8.056C72.2933 8.568 72.464 9.12266 72.464 9.71999C72.464 10.9147 72.08 11.896 71.312 12.664C70.544 13.3467 69.7333 13.688 68.88 13.688C68.4533 13.688 68.0267 13.6453 67.6 13.56C67.2587 13.3893 66.9173 13.2187 66.576 13.048C63.6747 11.4267 60.5173 10.1467 57.104 9.20799C53.6907 8.26933 50.064 7.8 46.224 7.8C38.8853 7.8 32.3573 9.464 26.64 12.792C20.9227 16.12 16.4427 20.6853 13.2 26.488C9.95733 32.2907 8.336 38.8613 8.336 46.2C8.336 53.5387 9.95733 60.1093 13.2 65.912C16.4427 71.7147 20.9227 76.28 26.64 79.608C32.3573 82.936 38.8853 84.6 46.224 84.6C50.064 84.6 53.904 84.0453 57.744 82.936C61.6693 81.8267 65.04 80.3333 67.856 78.456L67.216 81.144V51.704L69.136 53.496H46.992C45.8827 53.496 44.944 53.112 44.176 52.344C43.408 51.576 43.024 50.68 43.024 49.656C43.024 48.4613 43.408 47.5227 44.176 46.84C44.944 46.1573 45.8827 45.816 46.992 45.816H71.44C72.5493 45.816 73.4453 46.2 74.128 46.968C74.896 47.6507 75.28 48.5467 75.28 49.656V80.504C75.28 81.1867 75.1093 81.8267 74.768 82.424C74.4267 83.0213 73.9573 83.5333 73.36 83.96C69.6053 86.52 65.3813 88.568 60.688 90.104C56.08 91.5547 51.2587 92.28 46.224 92.28ZM159.984 11.256L128.88 88.568C128.539 89.4213 128.069 90.0613 127.472 90.488C126.875 90.9147 126.192 91.128 125.424 91.128C124.229 91.128 123.333 90.8293 122.736 90.232C122.139 89.5493 121.797 88.7387 121.712 87.8C121.627 87.3733 121.669 86.8613 121.84 86.264L155.632 3.576C156.059 2.63733 156.571 1.99733 157.168 1.656C157.851 1.22933 158.619 1.016 159.472 1.016C160.325 1.016 161.051 1.272 161.648 1.784C162.331 2.21066 162.843 2.808 163.184 3.576L196.848 85.88C197.019 86.392 197.104 86.904 197.104 87.416C197.104 88.6107 196.72 89.5493 195.952 90.232C195.184 90.8293 194.288 91.128 193.264 91.128C192.411 91.128 191.643 90.9147 190.96 90.488C190.363 89.976 189.893 89.336 189.552 88.568L157.68 10.744L159.984 11.256ZM136.304 65.144L139.504 57.592H179.184L180.72 65.144H136.304ZM313.315 8.056C314.339 8.73866 314.936 9.63466 315.107 10.744C315.278 11.768 315.022 12.792 314.339 13.816C313.742 14.584 312.974 15.0107 312.035 15.096C311.096 15.1813 310.2 15.0107 309.347 14.584C306.104 12.4507 302.606 10.7867 298.851 9.592C295.182 8.39733 291.214 7.8 286.947 7.8C281.742 7.8 276.878 8.73866 272.355 10.616C267.918 12.408 264.035 15.0533 260.707 18.552C257.379 21.9653 254.776 26.0187 252.899 30.712C251.107 35.4053 250.211 40.568 250.211 46.2C250.211 52.0027 251.15 57.2933 253.027 62.072C254.904 66.7653 257.507 70.8187 260.835 74.232C264.248 77.6453 268.174 80.248 272.611 82.04C277.048 83.832 281.827 84.728 286.947 84.728C291.128 84.728 295.054 84.1307 298.723 82.936C302.478 81.7413 305.976 80.12 309.219 78.072C310.072 77.56 310.968 77.3893 311.907 77.56C312.931 77.6453 313.742 78.1147 314.339 78.968C315.107 79.9067 315.363 80.9307 315.107 82.04C314.936 83.064 314.382 83.8747 313.443 84.472C311.31 85.8373 308.792 87.1173 305.891 88.312C302.99 89.5067 299.918 90.4453 296.675 91.128C293.432 91.896 290.19 92.28 286.947 92.28C280.803 92.28 275.043 91.1707 269.667 88.952C264.291 86.7333 259.512 83.6187 255.331 79.608C251.15 75.512 247.864 70.648 245.475 65.016C243.171 59.384 242.019 53.112 242.019 46.2C242.019 39.544 243.171 33.4427 245.475 27.896C247.779 22.264 250.979 17.4 255.075 13.304C259.171 9.208 263.95 6.008 269.411 3.70399C274.872 1.39999 280.718 0.247993 286.947 0.247993C291.811 0.247993 296.504 0.930662 301.027 2.296C305.55 3.66133 309.646 5.58133 313.315 8.056ZM393.156 91C391.961 91 390.98 90.616 390.212 89.848C389.529 89.08 389.188 88.184 389.188 87.16V5.62399H397.124V87.16C397.124 88.184 396.74 89.08 395.972 89.848C395.204 90.616 394.265 91 393.156 91ZM362.692 8.696C361.668 8.696 360.772 8.35467 360.004 7.672C359.236 6.98933 358.852 6.09333 358.852 4.98399C358.852 3.96 359.236 3.10666 360.004 2.424C360.772 1.74133 361.668 1.39999 362.692 1.39999H423.62C424.644 1.39999 425.54 1.74133 426.308 2.424C427.076 3.10666 427.46 4.00267 427.46 5.112C427.46 6.22133 427.076 7.11733 426.308 7.8C425.54 8.39733 424.644 8.696 423.62 8.696H362.692ZM482.622 1.39999H529.598C530.622 1.39999 531.518 1.78399 532.286 2.55199C533.054 3.23466 533.438 4.13066 533.438 5.24C533.438 6.34933 533.054 7.24533 532.286 7.92799C531.518 8.61066 530.622 8.952 529.598 8.952H485.566L486.846 6.77599V42.744L485.438 41.08H523.838C524.862 41.08 525.758 41.464 526.526 42.232C527.294 43 527.678 43.896 527.678 44.92C527.678 46.0293 527.294 46.9253 526.526 47.608C525.758 48.2907 524.862 48.632 523.838 48.632H485.694L486.846 47.352V84.216L486.206 83.448H529.598C530.622 83.448 531.518 83.832 532.286 84.6C533.054 85.368 533.438 86.264 533.438 87.288C533.438 88.3973 533.054 89.2933 532.286 89.976C531.518 90.6587 530.622 91 529.598 91H482.622C481.598 91 480.702 90.616 479.934 89.848C479.166 89.08 478.782 88.184 478.782 87.16V5.24C478.782 4.216 479.166 3.31999 479.934 2.55199C480.702 1.78399 481.598 1.39999 482.622 1.39999Z" fill="black"/>
</svg>
